<svg width="600.000000" height="600.000000" viewBox="0 0 600 600" fill="none" xmlns="http://www.w3.org/2000/svg" xmlns:xlink="http://www.w3.org/1999/xlink">
	<desc>
			Created with Pixso.
	</desc>
	<defs>
		<clipPath id="clip83_722">
			<rect id="logoПХТ128" width="600.000000" height="600.000000" fill="white" fill-opacity="0"/>
		</clipPath>
	</defs>
	<g clip-path="url(#clip83_722)">
		<path id="Многоугольник 8" d="M50.19 144.22C44 147.79 40.19 154.4 40.19 161.54L40.19 438.45C40.19 445.59 44 452.2 50.19 455.77L290 594.22C296.18 597.79 303.81 597.79 310 594.22L549.8 455.77C555.99 452.2 559.8 445.59 559.8 438.45L559.8 161.54C559.8 154.4 555.99 147.79 549.8 144.22L310 5.77C303.81 2.2 296.18 2.2 290 5.77L50.19 144.22ZM60.19 161.54L60.19 438.45L300 576.9L539.8 438.45L539.8 161.54L300 23.09L60.19 161.54Z" fill="#E9B700" fill-opacity="1.000000" fill-rule="evenodd"/>
		<path id="Форма 5" d="M287.36 69.75L108.09 173.25C103.07 176.14 101.35 182.57 104.25 187.59C107.15 192.61 113.57 194.33 118.59 191.43L297.86 87.93C302.88 85.03 304.6 78.61 301.7 73.59C298.8 68.57 292.38 66.85 287.36 69.75Z" fill="#E9B700" fill-opacity="1.000000" fill-rule="evenodd"/>
		<path id="Форма 3" d="M505.5 196.5L505.5 403.5C505.5 409.29 500.79 414 495 414C489.2 414 484.5 409.29 484.5 403.5L484.5 196.5C484.5 190.7 489.2 186 495 186C500.79 186 505.5 190.7 505.5 196.5Z" fill="#E9B700" fill-opacity="1.000000" fill-rule="evenodd"/>
		<path id="Форма 4" d="M118.59 408.56L297.86 512.06C302.88 514.96 304.6 521.38 301.7 526.4C298.8 531.42 292.38 533.14 287.36 530.25L108.09 426.75C103.07 423.85 101.35 417.42 104.25 412.4C107.14 407.38 113.57 405.66 118.59 408.56Z" fill="#E9B700" fill-opacity="1.000000" fill-rule="evenodd"/>
		<path id="Форма 8" d="M352.5 260L352.5 272.33C352.5 273.43 353.39 274.33 354.5 274.33L388.25 274.33C389.35 274.33 390.25 275.22 390.25 276.33L390.25 340C390.25 341.1 391.14 342 392.25 342L417.74 342C418.85 342 419.74 341.1 419.74 340L419.74 276.33C419.74 275.22 420.64 274.33 421.74 274.33L455.5 274.33C456.6 274.33 457.5 273.43 457.5 272.33L457.5 260C457.5 258.89 456.6 258 455.5 258L354.5 258C353.39 258 352.5 258.89 352.5 260Z" fill="#69107C" fill-opacity="1.000000" fill-rule="evenodd"/>
		<path id="Форма 8" d="M354.5 274.33L388.25 274.33C389.35 274.33 390.25 275.22 390.25 276.33L390.25 340C390.25 341.1 391.14 342 392.25 342L417.74 342C418.85 342 419.74 341.1 419.74 340L419.74 276.33C419.74 275.22 420.64 274.33 421.74 274.33L455.5 274.33C456.6 274.33 457.5 273.43 457.5 272.33L457.5 260C457.5 258.89 456.6 258 455.5 258L354.5 258C353.39 258 352.5 258.89 352.5 260L352.5 272.33C352.5 273.43 353.39 274.33 354.5 274.33Z" stroke="#69107C" stroke-opacity="1.000000" stroke-width="1.000000"/>
		<path id="Форма 7" d="M252.79 258L276.99 258C277.6 258 278.17 258.27 278.54 258.74L298.44 283.3C299.24 284.29 300.75 284.29 301.55 283.3L321.45 258.74C321.82 258.27 322.4 258 323 258L347.2 258C348.89 258 349.82 259.96 348.75 261.27L317.86 298.7C317.24 299.45 317.25 300.53 317.88 301.27L349.69 338.7C350.8 340 349.88 342 348.17 342L323 342C322.4 342 321.82 341.72 321.45 341.25L301.51 316.65C300.72 315.67 299.25 315.66 298.43 316.61L277.49 341.29C277.11 341.74 276.56 342 275.97 342L251.82 342C250.12 342 249.19 340 250.3 338.7L282.11 301.27C282.74 300.53 282.75 299.45 282.13 298.7L251.25 261.27C250.17 259.96 251.1 258 252.79 258Z" fill="#69107C" fill-opacity="1.000000" fill-rule="evenodd"/>
		<path id="Форма 7" d="M278.54 258.74L298.44 283.3C299.24 284.29 300.75 284.29 301.55 283.3L321.45 258.74C321.82 258.27 322.4 258 323 258L347.2 258C348.89 258 349.82 259.96 348.75 261.27L317.86 298.7C317.24 299.45 317.25 300.53 317.88 301.27L349.69 338.7C350.8 340 349.88 342 348.17 342L323 342C322.4 342 321.82 341.72 321.45 341.25L301.51 316.65C300.72 315.67 299.25 315.66 298.43 316.61L277.49 341.29C277.11 341.74 276.56 342 275.97 342L251.82 342C250.12 342 249.19 340 250.3 338.7L282.11 301.27C282.74 300.53 282.75 299.45 282.13 298.7L251.25 261.27C250.17 259.96 251.1 258 252.79 258L276.99 258C277.6 258 278.17 258.27 278.54 258.74Z" stroke="#69107C" stroke-opacity="1.000000" stroke-width="1.000000"/>
		<path id="Форма 6" d="M144.5 258L245.5 258C246.6 258 247.5 258.89 247.5 260L247.5 340C247.5 341.1 246.6 342 245.5 342L220 342C218.9 342 218 341.1 218 340L218 276.33C218 275.22 217.11 274.33 216 274.33L173.99 274.33C172.89 274.33 171.99 275.22 171.99 276.33L171.99 340C171.99 341.1 171.09 342 169.99 342L144.5 342C143.39 342 142.5 341.1 142.5 340L142.5 260C142.5 258.89 143.39 258 144.5 258Z" fill="#69107C" fill-opacity="1.000000" fill-rule="evenodd"/>
		<path id="Форма 6" d="M247.5 260L247.5 340C247.5 341.1 246.6 342 245.5 342L220 342C218.9 342 218 341.1 218 340L218 276.33C218 275.22 217.11 274.33 216 274.33L173.99 274.33C172.89 274.33 171.99 275.22 171.99 276.33L171.99 340C171.99 341.1 171.09 342 169.99 342L144.5 342C143.39 342 142.5 341.1 142.5 340L142.5 260C142.5 258.89 143.39 258 144.5 258L245.5 258C246.6 258 247.5 258.89 247.5 260Z" stroke="#69107C" stroke-opacity="1.000000" stroke-width="1.000000"/>
		<path id="пламя" d="M303.17 215.05C299.25 209.41 297.83 204.79 297.86 197.44C297.86 196.53 296.74 196.05 296.13 196.73C282.93 211.28 281.45 225.26 286.14 241.1C286.37 241.89 285.62 242.61 284.87 242.29C266.21 234.29 252 202.04 278.85 176.65C279.52 176.02 280.59 176.59 280.49 177.51C279.93 182.63 280.21 185.21 281.28 187.32C281.65 188.04 282.66 187.89 282.92 187.12C287.79 172.9 292.11 165.66 304.32 159.72C305.01 159.39 305.79 159.94 305.75 160.71C305.01 175.29 311.95 185.45 318.64 194.21C319.17 194.9 320.28 194.63 320.47 193.79C321.38 189.79 322.58 186.94 323.48 185.19C323.89 184.39 324.94 184.62 325.08 185.51C326.31 193.37 328.18 197.51 332.1 203.64C342.96 226.2 328.87 232.96 317.19 241.01C316.36 241.58 315.24 240.74 315.56 239.79C317.36 234.33 317.8 230.38 315.64 224.02C315.61 223.94 315.58 223.87 315.53 223.8C312.07 218.49 310.05 215.1 307.7 208.22C307.43 207.43 306.41 207.31 306.11 208.09C305.45 209.77 305.17 211.81 304.92 214.56C304.84 215.47 303.69 215.8 303.17 215.05Z" fill="#DF0113" fill-opacity="1.000000" fill-rule="evenodd"/>
		<path id="Форма 11" d="M300.76 358.09C320.12 384.33 328.06 408.48 326.88 419.99C324.66 434.23 311.9 440.73 299.34 440.98C287.24 441.23 274.47 437.55 273 419.99C273 410.77 278.54 387.39 299.15 358.11C299.54 357.56 300.35 357.55 300.76 358.09Z" fill="#6B99C3" fill-opacity="1.000000" fill-rule="evenodd"/>
		<path id="Форма 11" d="M326.88 419.99C324.66 434.23 311.9 440.73 299.34 440.98C287.24 441.23 274.47 437.55 273 419.99C273 410.77 278.54 387.39 299.15 358.11C299.54 357.56 300.35 357.55 300.76 358.09C320.12 384.33 328.06 408.48 326.88 419.99Z" fill="#000000" fill-opacity="0" fill-rule="nonzero"/>
		<path id="Форма 11" d="M299.34 440.98C287.24 441.23 274.47 437.55 273 419.99C273 410.77 278.54 387.39 299.15 358.11C299.54 357.56 300.35 357.55 300.76 358.09C320.12 384.33 328.06 408.48 326.88 419.99C324.66 434.23 311.9 440.73 299.34 440.98Z" stroke="#6B99C3" stroke-opacity="1.000000" stroke-width="1.000000"/>
		<path id="Форма 12" d="M284.97 401.96C286.78 411.66 290.97 419.91 297.08 428.44C297.77 429.4 296.52 430.65 295.61 429.9C285.14 421.26 280.14 414.27 283.06 401.83C283.3 400.79 284.77 400.91 284.97 401.96Z" fill="#FFFFFF" fill-opacity="1.000000" fill-rule="evenodd"/>
		<path id="Форма 12" d="M297.08 428.44C297.77 429.4 296.52 430.65 295.61 429.9C285.14 421.26 280.14 414.27 283.06 401.83C283.3 400.79 284.77 400.91 284.97 401.96C286.78 411.66 290.97 419.91 297.08 428.44Z" fill="#000000" fill-opacity="0" fill-rule="nonzero"/>
		<path id="Форма 12" d="M295.61 429.9C285.14 421.26 280.14 414.27 283.06 401.83C283.3 400.79 284.77 400.91 284.97 401.96C286.78 411.66 290.97 419.91 297.08 428.44C297.77 429.4 296.52 430.65 295.61 429.9Z" stroke="#FFFFFF" stroke-opacity="0.498039" stroke-width="0.000000"/>
	</g>
</svg>
