<svg width="14.000000" height="14.000000" viewBox="0 0 14 14" fill="none" xmlns="http://www.w3.org/2000/svg" xmlns:xlink="http://www.w3.org/1999/xlink">
	<desc>
			Created with Pixso.
	</desc>
	<defs/>
	<path d="M7 11.5C7 11.5 2.5 8 2.5 5C2.5 2.54 4.54 0.5 7 0.5C9.45 0.5 11.5 2.54 11.5 5C11.5 8 7 11.5 7 11.5Z" stroke="#FFFFFF" stroke-opacity="1.000000" stroke-width="0.500000" stroke-linejoin="round"/>
	<path d="M7 6.5C6.17 6.5 5.5 5.82 5.5 5C5.5 4.17 6.17 3.5 7 3.5C7.82 3.5 8.5 4.17 8.5 5C8.5 5.82 7.82 6.5 7 6.5Z" stroke="#FFFFFF" stroke-opacity="1.000000" stroke-width="0.500000" stroke-linejoin="round"/>
	<path d="M11.07 10L12 10L13.5 13.5L0.5 13.5L2 10L2.92 " stroke="#FFFFFF" stroke-opacity="1.000000" stroke-width="0.500000" stroke-linejoin="round" stroke-linecap="round"/>
</svg>
