<svg width="36.000000" height="36.000000" viewBox="0 0 36 36" fill="none" xmlns="http://www.w3.org/2000/svg" xmlns:xlink="http://www.w3.org/1999/xlink">
	<desc>
			Created with Pixso.
	</desc>
	<defs>
		<clipPath id="clip38_771">
			<rect id="Телефон" width="36.000000" height="36.000000" fill="white" fill-opacity="0"/>
		</clipPath>
	</defs>
	<rect id="Телефон" width="36.000000" height="36.000000" fill="#FFFFFF" fill-opacity="0"/>
	<g clip-path="url(#clip38_771)">
		<path id="path" d="M12.7471 5.7644C13.2921 5.7644 13.7941 6.05981 14.0586 6.53638L15.8934 9.84155C16.1336 10.2742 16.145 10.7976 15.9236 11.2402L14.1559 14.7756C14.1559 14.7756 14.6682 17.4092 16.812 19.553C18.9558 21.6968 21.5806 22.2002 21.5806 22.2002L25.1152 20.4329C25.5583 20.2114 26.0821 20.2229 26.515 20.4634L29.8295 22.3062C30.3054 22.5708 30.6006 23.0728 30.6006 23.6172L30.6006 27.4224C30.6006 29.3601 28.8007 30.7598 26.9646 30.1401C23.1937 28.8677 17.3401 26.4451 13.6301 22.7349C9.91986 19.0249 7.49725 13.1714 6.22485 9.40039C5.60535 7.56421 7.00488 5.7644 8.94263 5.7644L12.7471 5.7644Z" fill="#000000" fill-opacity="0" fill-rule="nonzero"/>
		<path id="path" d="M14.0586 6.53638L15.8934 9.84155C16.1336 10.2742 16.145 10.7976 15.9236 11.2402L14.1559 14.7756C14.1559 14.7756 14.6682 17.4092 16.812 19.553C18.9558 21.6968 21.5806 22.2002 21.5806 22.2002L25.1152 20.4329C25.5583 20.2114 26.0821 20.2229 26.515 20.4634L29.8295 22.3062C30.3054 22.5708 30.6006 23.0728 30.6006 23.6172L30.6006 27.4224C30.6006 29.3601 28.8007 30.7598 26.9646 30.1401C23.1937 28.8677 17.3401 26.4451 13.6301 22.7349C9.91986 19.0249 7.49725 13.1714 6.22485 9.40039C5.60535 7.56421 7.00488 5.7644 8.94263 5.7644L12.7471 5.7644C13.2921 5.7644 13.7941 6.05981 14.0586 6.53638Z" stroke="#FFFFFF" stroke-opacity="1.000000" stroke-width="1.500000" stroke-linejoin="round"/>
	</g>
</svg>
